<svg width="40" height="40" viewBox="0 0 40 40" fill="none" xmlns="http://www.w3.org/2000/svg">
<g clip-path="url(#clip0)">
<path d="M39.1396 11.0371L32.9885 4.45371C32.3799 3.8025 31.5181 3.42896 30.6239 3.42896H9.37627C8.48206 3.42896 7.62012 3.8025 7.01159 4.45371L0.860529 11.0371C-0.243795 12.219 -0.290606 14.0425 0.751632 15.2788L17.5266 35.1768C18.1413 35.906 19.0429 36.3242 20.0001 36.3242C20.9573 36.3242 21.8588 35.906 22.4735 35.1768L39.2485 15.2787C40.2907 14.0425 40.2439 12.219 39.1396 11.0371ZM38.2417 11.8658C38.424 12.061 38.5584 12.2848 38.6475 12.522H29.4005L32.0027 5.19472C32.0327 5.22305 32.0621 5.25204 32.0905 5.2824L38.2417 11.8658ZM30.8912 4.66545L28.2834 12.0085L21.4051 4.64686H30.6238C30.7137 4.64678 30.803 4.65352 30.8912 4.66545ZM27.091 12.522H12.9091L20.0001 4.93272L27.091 12.522ZM18.595 4.64678L11.7166 12.0085L9.10881 4.66545C9.19704 4.65352 9.28633 4.64686 9.37619 4.64686H18.595V4.64678ZM7.90956 5.2824C7.93791 5.25212 7.9674 5.22305 7.99746 5.19472L10.5996 12.522H1.35273C1.44177 12.2848 1.57616 12.061 1.7585 11.8658L7.90956 5.2824ZM1.69094 14.4967C1.49969 14.2699 1.36907 14.0108 1.29554 13.7399H11.032L18.2956 34.1928L1.69094 14.4967ZM19.9187 35.1042L12.3315 13.7399H27.6686L20.0814 35.1042C20.0543 35.1053 20.0273 35.1064 20.0001 35.1064C19.9729 35.1064 19.9458 35.1053 19.9187 35.1042ZM21.7045 34.1928L28.9681 13.7399H38.7046C38.6311 14.0108 38.5004 14.2699 38.3092 14.4968L21.7045 34.1928Z" fill="currentColor"/>
</g>
<defs>
<clipPath id="clip0">
<rect width="40" height="39.7529" fill="currentColor"/>
</clipPath>
</defs>
</svg>
