<svg width="18" height="27" viewBox="0 0 18 27" fill="none" xmlns="http://www.w3.org/2000/svg">
<path d="M11.2501 0.782227H9.00012C9.00012 2.02223 8.61387 2.56925 8.07927 3.32625C7.48707 4.16487 6.75012 5.20854 6.75012 7.15485C6.75012 9.10124 7.48707 10.1449 8.07927 10.9835C8.61387 11.7407 9.00012 12.2876 9.00012 13.5277C9.00012 14.7679 8.61387 15.3149 8.07927 16.072C7.48707 16.9106 6.75012 17.9544 6.75012 19.9009C6.75012 21.8472 7.48707 22.891 8.07927 23.7296C8.61387 24.4867 9.00012 25.0338 9.00012 26.2739H11.2501C11.2501 24.3275 10.5132 23.2838 9.92097 22.4451C9.38637 21.688 9.00012 21.1409 9.00012 19.9009C9.00012 18.6608 9.38637 18.1137 9.92097 17.3565C10.5132 16.5178 11.2501 15.4741 11.2501 13.5277C11.2501 11.5814 10.5132 10.5376 9.92097 9.6991C9.38637 8.94196 9.00012 8.39493 9.00012 7.15485C9.00012 5.91485 9.38637 5.36783 9.92097 4.61083C10.5132 3.77221 11.2501 2.72854 11.2501 0.782227Z" fill="#FFC28A"/>
<path d="M4.5 0.782227H2.25C2.25 2.02223 1.86375 2.56925 1.32915 3.32625C0.73695 4.16487 0 5.20854 0 7.15485C0 9.10124 0.73695 10.1449 1.32915 10.9835C1.86375 11.7407 2.25 12.2876 2.25 13.5277C2.25 14.7679 1.86375 15.3149 1.32915 16.072C0.73695 16.9106 0 17.9544 0 19.9009C0 21.8472 0.73695 22.891 1.32915 23.7296C1.86375 24.4867 2.25 25.0338 2.25 26.2739H4.5C4.5 24.3275 3.76305 23.2838 3.17085 22.4451C2.63625 21.688 2.25 21.1409 2.25 19.9009C2.25 18.6608 2.63625 18.1137 3.17085 17.3565C3.76305 16.5178 4.5 15.4741 4.5 13.5277C4.5 11.5814 3.76305 10.5376 3.17085 9.6991C2.63625 8.94196 2.25 8.39493 2.25 7.15485C2.25 5.91485 2.63625 5.36783 3.17085 4.61083C3.76305 3.77221 4.5 2.72854 4.5 0.782227Z" fill="#FFC28A"/>
<path d="M18.0002 0.782227H15.7502C15.7502 2.02223 15.3639 2.56925 14.8293 3.32625C14.2371 4.16487 13.5002 5.20854 13.5002 7.15485C13.5002 9.10124 14.2371 10.1449 14.8293 10.9835C15.3639 11.7407 15.7502 12.2876 15.7502 13.5277C15.7502 14.7679 15.3639 15.3149 14.8293 16.072C14.2371 16.9106 13.5002 17.9544 13.5002 19.9009C13.5002 21.8472 14.2371 22.891 14.8293 23.7296C15.3639 24.4867 15.7502 25.0338 15.7502 26.2739H18.0002C18.0002 24.3275 17.2632 23.2838 16.671 22.4451C16.1364 21.688 15.7502 21.1409 15.7502 19.9009C15.7502 18.6608 16.1364 18.1137 16.671 17.3565C17.2632 16.5178 18.0002 15.4741 18.0002 13.5277C18.0002 11.5814 17.2632 10.5376 16.671 9.6991C16.1364 8.94196 15.7502 8.39493 15.7502 7.15485C15.7502 5.91485 16.1364 5.36783 16.671 4.61083C17.2632 3.77221 18.0002 2.72854 18.0002 0.782227Z" fill="#FFC28A"/>
</svg>
