<svg width="40" height="40" viewBox="0 0 40 40" fill="none" xmlns="http://www.w3.org/2000/svg">
<path d="M31.7241 28.2756H8.2759C7.86209 28.2756 7.58624 28.5515 7.58624 28.9653C7.58624 29.3791 7.86209 29.655 8.2759 29.655H31.7242C32.138 29.655 32.4138 29.3791 32.4138 28.9653C32.4138 28.5515 32.1379 28.2756 31.7241 28.2756Z" fill="currentColor"/>
<path d="M39.3103 28.2758H37.931C37.5172 28.2758 37.2414 27.9309 37.2414 27.5861V25.1723C37.2414 21.7436 36.2367 18.4587 34.4898 15.6703C34.4874 15.6652 34.4853 15.6601 34.4827 15.6551C34.4624 15.6236 34.4411 15.5927 34.4206 15.5613C32.3376 12.2881 29.227 9.71206 25.5172 8.41365V8.20678C25.5172 7.10331 24.6207 6.20679 23.5172 6.20679H16.5517C15.3793 6.20679 14.4827 7.10331 14.4827 8.20678V8.48263C7.58624 10.8274 2.75863 17.4482 2.75863 24.8275V27.5861C2.75863 27.9999 2.4138 28.2758 2.06897 28.2758H0.689658C0.275847 28.2758 0 28.5516 0 28.9654V33.1034C0 33.5172 0.275847 33.793 0.689658 33.793H39.3103C39.7242 33.793 40 33.5172 40 33.1034V28.9654C40 28.5516 39.7242 28.2758 39.3103 28.2758ZM30.9957 13.5288C31.3269 13.8624 31.6458 14.2088 31.9513 14.5643C32.2505 14.9182 32.5345 15.2851 32.8033 15.6633L27.3103 17.5172L29.1633 11.9583C29.8134 12.4352 30.4254 12.9611 30.9957 13.5288ZM10.8276 11.9999L12.6896 17.5861L7.17235 15.724C8.20691 14.2757 9.44827 12.9654 10.8276 11.9999ZM38.6207 32.4136H1.37932V29.655H2.06897C3.24142 29.655 4.13795 28.6895 4.13795 27.586V24.8274C4.13795 21.9472 4.92861 19.1972 6.32335 16.8202L13.5862 19.2411C13.6552 19.3101 13.7242 19.3101 13.7931 19.3101C13.9999 19.3101 14.1379 19.2411 14.3448 19.1033C14.4827 18.9653 14.5516 18.6895 14.4827 18.4136L12.12 11.0627C12.8691 10.6322 13.6585 10.2608 14.4827 9.95604V12.4136C14.4827 12.8274 14.7586 13.1033 15.1724 13.1033C15.5862 13.1033 15.8621 12.8274 15.8621 12.4136V8.96534V8.2067C15.8621 7.86187 16.1379 7.58602 16.5517 7.58602H19.3103V15.8619C19.3103 16.2757 19.5862 16.5516 20 16.5516C20.4138 16.5516 20.6897 16.2067 20.6897 15.8619V7.5861H23.5173C23.8621 7.5861 24.1379 7.86195 24.1379 8.20678V8.96542V12.4137C24.1379 12.8275 24.4138 13.1034 24.8276 13.1034C25.2414 13.1034 25.5173 12.8275 25.5173 12.4137V9.96645C26.3781 10.2955 27.2007 10.7 27.9793 11.1697L25.5862 18.4137C25.4482 18.6206 25.5172 18.8965 25.7241 19.1033C25.8621 19.2413 26 19.3102 26.2069 19.3102C26.2759 19.3102 26.3449 19.3102 26.4138 19.3102L33.589 16.8757C35.0386 19.3439 35.8621 22.2028 35.8621 25.1722V27.586C35.8621 28.7585 36.8276 29.655 37.931 29.655H38.6207V32.4136Z" fill="currentColor"/>
</svg>
