<svg width="40" height="40" viewBox="0 0 40 40" fill="none" xmlns="http://www.w3.org/2000/svg">
<g clip-path="url(#clip0)">
<path d="M39.9331 14.3893C39.7651 13.8558 39.265 13.4949 38.7026 13.5011H25.3537L21.2271 0.88405C21.0525 0.356507 20.557 0 19.9981 0C19.4395 0 18.9441 0.356507 18.7694 0.88405L14.6428 13.5011H1.294C0.733808 13.5008 0.237091 13.8592 0.0634132 14.3887C-0.109948 14.9181 0.0792021 15.4983 0.532343 15.826L11.3322 23.6246L7.20819 36.2417C7.03546 36.7714 7.22493 37.3511 7.67807 37.6784C8.13121 38.0057 8.74476 38.0057 9.19822 37.679L19.9981 29.8807L30.7983 37.679C31.2496 38.0132 31.8682 38.0132 32.3194 37.679C32.7779 37.3558 32.9687 36.7717 32.789 36.2423L28.6643 23.6246L39.4642 15.826C39.9221 15.5021 40.1128 14.9187 39.9331 14.3893ZM27.5228 22.8598C27.2964 23.0233 27.2016 23.3133 27.2878 23.5778L31.5581 36.639L20.3786 28.5664C20.1519 28.4026 19.8447 28.4026 19.6179 28.5664L8.43814 36.639L12.7065 23.5778C12.7927 23.3133 12.698 23.0233 12.4719 22.8598L1.294 14.7866H15.113C15.3931 14.7866 15.6413 14.6074 15.7279 14.3425L19.9981 1.27351V1.28041L24.2665 14.3425C24.353 14.6074 24.6015 14.7866 24.8816 14.7866H38.7026L27.5228 22.8598Z" fill="currentColor"/>
</g>
<defs>
<clipPath id="clip0">
<rect width="40" height="39.7529" fill="currentColor"/>
</clipPath>
</defs>
</svg>
