<svg width="40" height="40" viewBox="0 0 40 40" fill="none" xmlns="http://www.w3.org/2000/svg">
<path d="M34.786 28.2861L31.0553 33.6461L28.4227 31.4854C28.1387 31.2514 27.718 31.2941 27.4847 31.5774C27.2507 31.8621 27.292 32.2827 27.5773 32.5154L30.768 35.1347C30.888 35.2334 31.0373 35.2867 31.1907 35.2867C31.2207 35.2867 31.2513 35.2847 31.282 35.2801C31.466 35.2547 31.6313 35.1534 31.738 35.0007L35.8807 29.0481C36.0907 28.7461 36.0167 28.3307 35.714 28.1201C35.4113 27.9074 34.9967 27.9834 34.786 28.2861Z" fill="currentColor"/>
<path d="M20.6667 17.3474V10.5861C20.6667 10.2174 20.368 9.91943 20 9.91943C19.632 9.91943 19.3333 10.2174 19.3333 10.5861V17.3474C18.3733 17.5968 17.622 18.3614 17.4027 19.3334H12.6667C12.2987 19.3334 12 19.6314 12 20.0001C12 20.3688 12.2987 20.6668 12.6667 20.6668H17.4533C17.7787 21.7721 18.7907 22.5861 20 22.5861C21.4707 22.5861 22.6667 21.3901 22.6667 19.9194C22.6667 18.6801 21.8133 17.6454 20.6667 17.3474ZM20 21.2528C19.2647 21.2528 18.6667 20.6548 18.6667 19.9194C18.6667 19.1841 19.2647 18.5861 20 18.5861C20.7353 18.5861 21.3333 19.1841 21.3333 19.9194C21.3333 20.6548 20.7353 21.2528 20 21.2528Z" fill="currentColor"/>
<path d="M40 20C40 8.972 31.028 0 20 0C8.972 0 0 8.972 0 20C0 31.028 8.972 40 20 40C22.3667 40 24.6853 39.582 26.9 38.7667C28.1993 39.544 29.712 40 31.3333 40C36.112 40 40 36.112 40 31.3333C40 29.712 39.5447 28.1993 38.7667 26.9C39.582 24.6853 40 22.3667 40 20ZM25.5833 37.8127C23.778 38.3793 21.9053 38.6667 20 38.6667C9.70733 38.6667 1.33333 30.2927 1.33333 20C1.33333 9.70733 9.70733 1.33333 20 1.33333C30.2927 1.33333 38.6667 9.70733 38.6667 20C38.6667 21.9047 38.38 23.778 37.8127 25.5833C37.7607 25.5247 37.7013 25.4733 37.648 25.416C37.5387 25.2993 37.4273 25.1847 37.3113 25.074C37.2067 24.974 37.1 24.878 36.9913 24.7833C36.8853 24.6913 36.7773 24.6027 36.6667 24.5167C36.5447 24.4213 36.422 24.328 36.2953 24.2387C36.1867 24.1627 36.0753 24.0913 35.9627 24.02C35.83 23.936 35.6973 23.852 35.56 23.7753C35.4413 23.7087 35.3193 23.6487 35.1973 23.588C35.0613 23.52 34.926 23.4507 34.7867 23.39C34.65 23.33 34.5087 23.2793 34.368 23.2267C34.2367 23.1773 34.1073 23.1247 33.974 23.082C33.812 23.03 33.6447 22.9893 33.4787 22.9467C33.36 22.9167 33.244 22.8807 33.124 22.8553C32.9267 22.8133 32.7247 22.786 32.5227 22.758C32.4287 22.7447 32.336 22.7253 32.2413 22.7153C31.9433 22.684 31.6407 22.6667 31.3333 22.6667C26.5547 22.6667 22.6667 26.5547 22.6667 31.3333C22.6667 31.64 22.684 31.9433 22.7153 32.242C22.7253 32.338 22.7453 32.4313 22.7587 32.526C22.7867 32.7267 22.814 32.928 22.8553 33.124C22.8807 33.2453 22.9173 33.3627 22.948 33.4827C22.99 33.6473 23.03 33.8127 23.082 33.9733C23.1253 34.1087 23.1787 34.2393 23.228 34.372C23.28 34.5107 23.33 34.65 23.3893 34.7853C23.4507 34.926 23.5207 35.0633 23.59 35.2007C23.65 35.3213 23.7093 35.4413 23.7747 35.5587C23.8527 35.6973 23.9373 35.832 24.0227 35.966C24.0927 36.076 24.1627 36.186 24.238 36.2927C24.328 36.4213 24.4227 36.5453 24.52 36.6693C24.6053 36.778 24.692 36.884 24.782 36.988C24.878 37.0987 24.976 37.2073 25.0773 37.3133C25.186 37.4267 25.2987 37.536 25.4133 37.644C25.4707 37.6987 25.5227 37.7593 25.5833 37.8127ZM31.3333 38.6667C29.8493 38.6667 28.4693 38.2207 27.314 37.46C27.07 37.3 26.8387 37.1267 26.618 36.942C26.578 36.908 26.5407 36.8707 26.5013 36.836C26.3353 36.6907 26.1767 36.538 26.0253 36.3793C25.9587 36.3093 25.894 36.238 25.8307 36.1647C25.7107 36.028 25.5967 35.8867 25.4873 35.7427C25.428 35.664 25.3667 35.5873 25.3107 35.5067C25.174 35.3107 25.0473 35.108 24.9313 34.9C24.9013 34.8453 24.872 34.7907 24.8427 34.736C24.732 34.526 24.6313 34.3107 24.542 34.09C24.5073 34.004 24.478 33.9153 24.446 33.828C24.3827 33.6527 24.324 33.4747 24.274 33.2947C24.248 33.2007 24.2233 33.1067 24.2013 33.0113C24.1567 32.822 24.1213 32.63 24.092 32.436C24.0793 32.3513 24.0627 32.2667 24.0527 32.1807C24.0207 31.9013 24 31.6187 24 31.3333C24 27.29 27.29 24 31.3333 24C31.6187 24 31.9013 24.0207 32.1807 24.0533C32.2667 24.0633 32.3507 24.0793 32.436 24.0927C32.6293 24.122 32.8213 24.1573 33.0107 24.202C33.106 24.2247 33.2007 24.2487 33.2947 24.2753C33.4747 24.3253 33.652 24.3833 33.8273 24.4467C33.9153 24.4787 34.004 24.508 34.09 24.5433C34.3093 24.6327 34.524 24.7327 34.7333 24.8427C34.79 24.872 34.846 24.902 34.9013 24.9333C35.1087 25.0493 35.3107 25.1753 35.506 25.3113C35.5873 25.3673 35.664 25.4287 35.7427 25.4887C35.8873 25.598 36.0287 25.7113 36.1647 25.832C36.2373 25.896 36.3093 25.9607 36.3793 26.0267C36.538 26.178 36.69 26.3367 36.836 26.5027C36.8707 26.5427 36.908 26.5793 36.942 26.6193C37.1267 26.8393 37.2993 27.0707 37.4593 27.314C38.2207 28.4693 38.6667 29.8493 38.6667 31.3333C38.6667 35.3767 35.3767 38.6667 31.3333 38.6667Z" fill="currentColor"/>
</svg>
