<svg width="25" height="21" viewBox="0 0 25 21" fill="none" xmlns="http://www.w3.org/2000/svg">
<path d="M24.047 13.041V10.4609C22.8773 10.4609 22.3612 10.018 21.6472 9.405C20.8561 8.72592 19.8715 7.88086 18.0355 7.88086C16.1995 7.88086 15.2149 8.72592 14.4239 9.405C13.7096 10.018 13.1937 10.4609 12.0239 10.4609C10.854 10.4609 10.338 10.018 9.62374 9.405C8.83265 8.72592 7.84806 7.88086 6.01191 7.88086C4.17584 7.88086 3.19125 8.72592 2.40016 9.405C1.68592 10.018 1.16989 10.4609 3.05176e-05 10.4609V13.041C1.83618 13.041 2.8207 12.196 3.61186 11.5169C4.32609 10.9039 4.84212 10.4609 6.01191 10.4609C7.18171 10.4609 7.6978 10.9039 8.41204 11.5169C9.2032 12.196 10.1878 13.041 12.0239 13.041C13.8599 13.041 14.8445 12.196 15.6355 11.5169C16.3497 10.9039 16.8657 10.4609 18.0355 10.4609C19.2053 10.4609 19.7213 10.9039 20.4354 11.5169C21.2265 12.196 22.211 13.041 24.047 13.041Z" fill="#005C9D"/>
<path d="M24.047 5.30078V2.72058C22.8773 2.72058 22.3612 2.27765 21.6472 1.66459C20.8561 0.985482 19.8715 0.140381 18.0355 0.140381C16.1995 0.140381 15.2149 0.985482 14.4239 1.66459C13.7096 2.27765 13.1937 2.72058 12.0239 2.72058C10.854 2.72058 10.338 2.27765 9.62374 1.66459C8.83265 0.985482 7.84806 0.140381 6.01191 0.140381C4.17584 0.140381 3.19125 0.985482 2.40016 1.66459C1.68592 2.27765 1.16989 2.72058 3.05176e-05 2.72058V5.30078C1.83618 5.30078 2.8207 4.45568 3.61186 3.77657C4.32609 3.16352 4.84212 2.72058 6.01191 2.72058C7.18171 2.72058 7.6978 3.16352 8.41204 3.77657C9.2032 4.45568 10.1878 5.30078 12.0239 5.30078C13.8599 5.30078 14.8445 4.45568 15.6355 3.77657C16.3497 3.16352 16.8657 2.72058 18.0355 2.72058C19.2053 2.72058 19.7213 3.16352 20.4354 3.77657C21.2265 4.45568 22.211 5.30078 24.047 5.30078Z" fill="#005C9D"/>
<path d="M24.047 20.7812V18.2012C22.8773 18.2012 22.3612 17.7583 21.6472 17.1452C20.8561 16.4662 19.8715 15.6211 18.0355 15.6211C16.1995 15.6211 15.2149 16.4662 14.4239 17.1452C13.7096 17.7583 13.1937 18.2012 12.0239 18.2012C10.854 18.2012 10.338 17.7583 9.62374 17.1452C8.83265 16.4662 7.84806 15.6211 6.01191 15.6211C4.17584 15.6211 3.19125 16.4662 2.40016 17.1452C1.68592 17.7583 1.16989 18.2012 3.05176e-05 18.2012V20.7812C1.83618 20.7812 2.8207 19.9362 3.61186 19.2571C4.32609 18.6441 4.84212 18.2012 6.01191 18.2012C7.18171 18.2012 7.6978 18.6441 8.41204 19.2571C9.2032 19.9362 10.1878 20.7812 12.0239 20.7812C13.8599 20.7812 14.8445 19.9362 15.6355 19.2571C16.3497 18.6441 16.8657 18.2012 18.0355 18.2012C19.2053 18.2012 19.7213 18.6441 20.4354 19.2571C21.2265 19.9362 22.211 20.7812 24.047 20.7812Z" fill="#005C9D"/>
</svg>
